<svg t="1725272432383" class="svg-icon" viewBox="0 0 1024 1024" version="1.1" xmlns="http://www.w3.org/2000/svg" p-id="8418" xmlns:xlink="http://www.w3.org/1999/xlink" width="200" height="200"><path d="M138.666667 584.533333C92.16 548.586667 64 490.197333 64 426.965333c0-32.277333 9.664-64.149333 10.026667-65.365333l81.429333-209.493333C168.042667 111.189333 202.730667 85.333333 247.381333 85.333333h531.541334c44.053333 0.106667 81.728 26.218667 94.848 68.778667l75.733333 205.312c0.725333 1.898667 10.496 24.576 10.517333 66.773333 0 63.189333-28.16 121.813333-74.688 157.866667V793.6a134.4 134.4 0 0 1-134.4 134.4H273.066667a134.4 134.4 0 0 1-134.4-134.4v-209.066667z m64 30.165334V793.6a70.4 70.4 0 0 0 70.4 70.4h477.866666a70.4 70.4 0 0 0 70.4-70.4v-179.456a189.717333 189.717333 0 0 1-38.826666 4.053333c-53.269333 0-102.442667-25.237333-135.914667-68.672-33.152 43.029333-81.749333 68.330667-134.229333 68.8-52.928-0.362667-101.653333-25.557333-134.954667-68.629333-33.472 43.434667-82.56 68.8-135.594667 68.970667a187.008 187.008 0 0 1-39.146666-3.968z m-12.074667-72.192c0.298667-0.149333 0.469333-0.213333 2.218667 1.258666 13.333333 7.125333 29.504 10.901333 48.789333 10.901334 32.64-0.106667 63.36-15.786667 85.12-44.032a64 64 0 0 1 101.312-0.085334c21.653333 28.010667 52.096 43.541333 83.754667 43.776 32.213333-0.277333 62.570667-15.893333 84.096-43.84a64 64 0 0 1 101.397333-0.021333c21.717333 28.16 52.394667 43.733333 84.885333 43.733333 21.205333-0.106667 38.613333-4.586667 52.565334-12.928 37.333333-22.208 61.290667-66.261333 61.290666-115.050666a154.88 154.88 0 0 0-3.584-35.136 46.272 46.272 0 0 0-2.56-8.384l-0.426666-1.130667-75.733334-205.290667-1.109333-3.306666c-4.565333-14.848-16.810667-23.594667-33.706667-23.637334H247.402667c-16.341333 0-26.368 7.338667-30.741334 21.546667l-1.536 4.373333-80.426666 206.997334c-0.768 2.730667-1.92 7.466667-3.072 13.077333A164.608 164.608 0 0 0 128 426.944c0 49.194667 24.362667 93.354667 62.592 115.562667z" fill="currentColor" p-id="8419"></path></svg>