<?xml version="1.0" encoding="UTF-8"?><svg id="a" xmlns="http://www.w3.org/2000/svg" width="456.01" height="157.4" viewBox="0 0 456.01 157.4"><polygon points="35.53 139.39 35.33 139.39 27.16 126.4 23.22 126.4 23.22 150.26 27.35 150.26 27.35 134.28 27.55 134.28 33.94 144.39 36.92 144.39 43.31 134.22 43.51 134.22 43.51 150.26 47.64 150.26 47.64 126.4 43.7 126.4 35.53 139.39"/><path d="m62.49,132.93c-1.1-.54-2.36-.81-3.78-.81s-2.76.29-3.88.86c-1.12.57-2.08,1.43-2.88,2.57l2.91,2c.43-.62.94-1.1,1.53-1.42s1.27-.48,2.02-.48c1.03,0,1.87.28,2.5.84s.95,1.3.95,2.23v.68h-2.52c-1.7,0-3.18.26-4.43.79s-2.2,1.27-2.86,2.21c-.66.95-.99,2.05-.99,3.3,0,1.03.25,1.93.74,2.68.5.75,1.17,1.34,2.04,1.74.86.41,1.83.61,2.91.61s2.06-.24,2.94-.71c.88-.47,1.54-1.13,1.97-1.97h.19v2.23h4.07v-11.5c0-1.36-.3-2.54-.9-3.54-.6-1-1.45-1.77-2.55-2.31h.02Zm-.61,11.05c0,.71-.2,1.31-.6,1.81-.4.5-.9.87-1.5,1.11-.6.25-1.23.37-1.87.37-.8,0-1.44-.17-1.92-.5s-.73-.78-.73-1.34c0-.84.41-1.48,1.24-1.92s2.07-.66,3.73-.66h1.65s0,1.13,0,1.13Z"/><path d="m81.52,141.75c-1.03-.9-2.54-1.57-4.52-2-1.31-.3-2.26-.64-2.83-1.02s-.86-.82-.86-1.34c0-.56.24-1,.71-1.32.47-.32,1.13-.48,1.97-.48.75,0,1.45.21,2.1.63.65.42,1.21,1.01,1.68,1.76l3.07-2.1c-.67-1.16-1.59-2.08-2.76-2.75-1.17-.67-2.55-1-4.12-1-2.07,0-3.73.49-4.98,1.47s-1.87,2.28-1.87,3.89c0,1.47.56,2.65,1.68,3.55s2.72,1.59,4.81,2.07c1.12.26,1.95.57,2.49.94s.81.84.81,1.42c0,.54-.24.97-.73,1.31-.48.33-1.18.5-2.08.5s-1.77-.23-2.52-.69-1.39-1.14-1.91-2.02l-3.07,2.13c.6,1.23,1.56,2.21,2.86,2.94s2.85,1.1,4.64,1.1c1.36,0,2.57-.23,3.63-.69,1.07-.46,1.89-1.12,2.47-1.97.58-.85.87-1.83.87-2.92,0-1.36-.52-2.49-1.55-3.39v-.02h0Z"/><path d="m91.47,127.34h-4.14v5.23h-2.75v3.84h2.75v8.56c0,1.9.48,3.34,1.45,4.35.97,1,2.36,1.5,4.17,1.5,1.06,0,2.02-.14,2.91-.42v-3.84c-.71.22-1.37.32-1.97.32-.78,0-1.37-.21-1.79-.63s-.63-1.02-.63-1.79v-8.04h4.78v-3.84h-4.78v-5.23h0Z"/><path d="m110.24,133.09c-1.18-.65-2.56-.97-4.14-.97-1.66,0-3.12.38-4.38,1.15-1.26.77-2.22,1.86-2.89,3.28s-1,3.08-1,4.97.35,3.5,1.05,4.88c.7,1.38,1.7,2.44,2.99,3.2,1.29.75,2.81,1.13,4.56,1.13s3.08-.36,4.26-1.08,2.08-1.66,2.68-2.83l-3.1-2.13c-.45.82-1,1.43-1.65,1.84s-1.37.61-2.16.61c-.97,0-1.78-.23-2.44-.68s-1.15-1.09-1.49-1.91c-.21-.52-.35-1.12-.43-1.78h11.53c.22-.88.32-1.79.32-2.71,0-1.59-.32-2.99-.97-4.2s-1.56-2.13-2.75-2.78h.01Zm-8.03,6.36c.07-.41.16-.8.28-1.15.3-.89.76-1.57,1.37-2.04.61-.46,1.36-.69,2.25-.69.8,0,1.47.16,2.02.48s.96.77,1.23,1.34c.27.57.4,1.25.4,2.05h-7.55Z"/><path d="m124.03,133.09c-1.1.65-1.97,1.56-2.62,2.75h-.16v-3.26h-4.1v17.7h4.1v-9.27c0-.97.24-1.81.73-2.54.48-.72,1.22-1.27,2.2-1.65.98-.38,2.21-.57,3.7-.57h.29v-4.13h-.19c-1.53,0-2.84.32-3.94.97h0Z"/><path d="m144.27,146.25c-.2-.2-.31-.5-.31-.89v-18.96h-4.1v20.26c0,1.23.34,2.16,1.03,2.79.69.64,1.7.95,3.04.95h2.07v-3.84h-.84c-.39,0-.68-.1-.89-.31Z"/><rect x="149.1" y="132.57" width="4.07" height="17.7"/><path d="m151.11,124.85c-.75,0-1.36.23-1.81.69s-.68,1.08-.68,1.86.22,1.36.66,1.81,1.05.68,1.83.68,1.39-.23,1.86-.68c.46-.45.69-1.05.69-1.81s-.23-1.39-.69-1.86c-.46-.46-1.08-.69-1.86-.69h0Z"/><path d="m169.2,134.83h-.16c-.58-.86-1.3-1.53-2.16-2s-1.79-.71-2.78-.71c-1.44,0-2.72.37-3.83,1.1-1.11.73-1.97,1.76-2.58,3.09-.61,1.32-.92,2.87-.92,4.64s.31,3.41.94,4.8c.62,1.39,1.51,2.46,2.65,3.21s2.43,1.13,3.88,1.13c1.01,0,1.94-.24,2.78-.71s1.52-1.14,2.04-2h.16v1.91c0,1.49-.37,2.62-1.11,3.39-.74.78-1.77,1.16-3.09,1.16-.97,0-1.83-.21-2.58-.63s-1.39-1.05-1.91-1.89l-3.1,2.16c.65,1.18,1.62,2.14,2.91,2.86,1.29.72,2.88,1.08,4.75,1.08,2.58,0,4.61-.75,6.07-2.26s2.2-3.62,2.2-6.33v-16.25h-4.14v2.26h-.02,0Zm-.37,8.96c-.33.77-.81,1.36-1.42,1.78s-1.33.63-2.15.63-1.59-.21-2.25-.63-1.17-1.01-1.53-1.78c-.37-.76-.55-1.65-.55-2.67s.18-1.93.53-2.7c.36-.76.85-1.36,1.49-1.78s1.36-.63,2.18-.63,1.55.21,2.2.63,1.14,1.01,1.49,1.78c.34.76.52,1.66.52,2.7s-.17,1.9-.5,2.67h-.01Z"/><path d="m186.71,132.12c-1.06,0-2.05.25-2.97.76-.93.51-1.65,1.19-2.16,2.05h-.16v-8.53h-4.1v23.87h4.1v-10.27c0-.8.16-1.5.47-2.12.31-.61.76-1.09,1.34-1.42s1.26-.5,2.04-.5c.95,0,1.72.34,2.33,1.02.6.68.9,1.58.9,2.7v10.6h4.1v-11.4c0-2.15-.52-3.82-1.55-4.99s-2.48-1.76-4.33-1.76h0Z"/><path d="m201.86,127.34h-4.14v5.23h-2.75v3.84h2.75v8.56c0,1.9.48,3.34,1.45,4.35.97,1,2.36,1.5,4.17,1.5,1.06,0,2.02-.14,2.91-.42v-3.84c-.71.22-1.37.32-1.97.32-.78,0-1.37-.21-1.79-.63s-.63-1.02-.63-1.79v-8.04h4.78v-3.84h-4.78v-5.23h0Z"/><polygon points="208.93 154.14 211.97 154.14 214.91 145.49 210.19 145.49 208.93 154.14"/><path d="m233.5,136.66c.63-.44,1.38-.66,2.25-.66.78,0,1.49.21,2.13.63.65.42,1.2,1.03,1.65,1.83l3.23-2.26c-.65-1.23-1.59-2.21-2.83-2.94s-2.58-1.1-4.02-1.1c-1.72,0-3.23.38-4.52,1.13-1.29.75-2.29,1.83-2.99,3.23-.7,1.4-1.05,3.04-1.05,4.91s.35,3.51,1.05,4.91,1.7,2.48,2.99,3.25,2.8,1.15,4.52,1.15c1.44,0,2.78-.37,4.02-1.11s2.18-1.73,2.83-2.96l-3.23-2.26c-.45.8-1,1.41-1.65,1.83s-1.37.63-2.16.63c-.86,0-1.6-.22-2.23-.66-.63-.44-1.11-1.07-1.45-1.89s-.52-1.78-.52-2.88.17-2.03.52-2.86c.34-.83.83-1.46,1.47-1.91h-.01Z"/><path d="m256.12,132.93c-1.1-.54-2.36-.81-3.78-.81s-2.76.29-3.88.86c-1.12.57-2.08,1.43-2.88,2.57l2.91,2c.43-.62.94-1.1,1.53-1.42s1.26-.48,2.02-.48c1.03,0,1.87.28,2.5.84s.95,1.3.95,2.23v.68h-2.52c-1.7,0-3.18.26-4.43.79s-2.2,1.27-2.86,2.21c-.66.95-.99,2.05-.99,3.3,0,1.03.25,1.93.74,2.68.5.75,1.17,1.34,2.03,1.74.86.41,1.83.61,2.91.61s2.06-.24,2.94-.71,1.54-1.13,1.97-1.97h.19v2.23h4.07v-11.5c0-1.36-.3-2.54-.9-3.54-.6-1-1.45-1.77-2.55-2.31h.03,0Zm-.61,11.05c0,.71-.2,1.31-.6,1.81-.4.5-.9.87-1.5,1.11-.6.25-1.23.37-1.87.37-.8,0-1.44-.17-1.92-.5s-.73-.78-.73-1.34c0-.84.41-1.48,1.24-1.92s2.07-.66,3.73-.66h1.65v1.13Z"/><path d="m276.52,133.25c-1.09-.75-2.34-1.13-3.76-1.13-1.01,0-1.96.24-2.84.73-.88.48-1.63,1.15-2.23,1.99h-.16v-2.26h-4.1v24.42h4.1v-8.98h.16c.58.86,1.3,1.53,2.16,2s1.82.71,2.87.71c1.42,0,2.68-.4,3.78-1.2s1.95-1.92,2.55-3.36c.6-1.44.9-3.11.9-5.01,0-1.79-.3-3.36-.9-4.73s-1.45-2.43-2.54-3.18h.01Zm-1.26,11c-.36.81-.86,1.44-1.52,1.89s-1.41.68-2.25.68-1.53-.23-2.15-.68c-.61-.45-1.09-1.08-1.44-1.89-.34-.81-.52-1.75-.52-2.83s.17-2.02.52-2.84.84-1.45,1.49-1.89c.65-.44,1.38-.66,2.2-.66s1.55.22,2.18.66,1.13,1.07,1.49,1.89.53,1.77.53,2.84-.18,2.02-.53,2.83Z"/><path d="m288.62,127.34h-4.14v5.23h-2.75v3.84h2.75v8.56c0,1.9.48,3.34,1.45,4.35.97,1,2.36,1.5,4.17,1.5,1.06,0,2.02-.14,2.91-.42v-3.84c-.71.22-1.37.32-1.97.32-.78,0-1.37-.21-1.79-.63s-.63-1.02-.63-1.79v-8.04h4.78v-3.84h-4.78v-5.23h0Z"/><path d="m306.94,142.91c0,.8-.16,1.5-.47,2.1s-.76,1.07-1.34,1.41c-.58.33-1.25.5-2,.5-.97,0-1.76-.34-2.36-1.02-.6-.68-.9-1.58-.9-2.7v-10.63h-4.1v11.5c0,2.11.53,3.75,1.58,4.91s2.5,1.74,4.33,1.74c1.08,0,2.07-.25,2.97-.74.9-.5,1.6-1.17,2.1-2.03h.19v2.33h4.1v-17.7h-4.1v10.34h0Z"/><path d="m321.93,133.09c-1.1.65-1.97,1.56-2.62,2.75h-.16v-3.26h-4.1v17.7h4.1v-9.27c0-.97.24-1.81.73-2.54.48-.72,1.22-1.27,2.2-1.65.98-.38,2.21-.57,3.7-.57h.29v-4.13h-.19c-1.53,0-2.84.32-3.94.97h-.01Z"/><path d="m339.67,133.09c-1.18-.65-2.56-.97-4.14-.97-1.66,0-3.12.38-4.38,1.15-1.26.77-2.22,1.86-2.89,3.28s-1,3.08-1,4.97.35,3.5,1.05,4.88c.7,1.38,1.7,2.44,2.99,3.2,1.29.75,2.81,1.13,4.56,1.13s3.08-.36,4.26-1.08c1.18-.72,2.08-1.66,2.68-2.83l-3.1-2.13c-.45.82-1,1.43-1.65,1.84s-1.37.61-2.16.61c-.97,0-1.78-.23-2.44-.68s-1.15-1.09-1.49-1.91c-.21-.52-.35-1.12-.43-1.78h11.53c.21-.88.32-1.79.32-2.71,0-1.59-.32-2.99-.97-4.2s-1.56-2.13-2.75-2.78h.01Zm-8.03,6.36c.07-.41.16-.8.28-1.15.3-.89.76-1.57,1.37-2.04.61-.46,1.36-.69,2.25-.69.8,0,1.47.16,2.02.48s.96.77,1.23,1.34c.27.57.4,1.25.4,2.05h-7.55Z"/><path d="m365.19,132.12c-1.06,0-2.05.25-2.97.76-.93.51-1.65,1.19-2.16,2.05h-.16v-2.36h-4.1v17.7h4.1v-10.27c0-.8.16-1.5.47-2.12.31-.61.76-1.09,1.34-1.42s1.26-.5,2.04-.5c.95,0,1.72.34,2.33,1.02.6.68.9,1.58.9,2.7v10.6h4.1v-11.4c0-2.15-.52-3.82-1.55-4.99s-2.48-1.76-4.33-1.76h-.01Z"/><path d="m377.27,124.85c-.75,0-1.36.23-1.81.69s-.68,1.08-.68,1.86.22,1.36.66,1.81,1.05.68,1.83.68,1.39-.23,1.86-.68c.46-.45.69-1.05.69-1.81s-.23-1.39-.69-1.86c-.46-.46-1.08-.69-1.86-.69Z"/><rect x="375.27" y="132.57" width="4.07" height="17.7"/><path d="m395.36,134.83h-.16c-.58-.86-1.3-1.53-2.16-2-.86-.47-1.79-.71-2.78-.71-1.44,0-2.72.37-3.83,1.1-1.11.73-1.97,1.76-2.58,3.09-.61,1.32-.92,2.87-.92,4.64s.31,3.41.94,4.8c.62,1.39,1.51,2.46,2.65,3.21,1.14.75,2.43,1.13,3.88,1.13,1.01,0,1.94-.24,2.78-.71s1.52-1.14,2.04-2h.16v1.91c0,1.49-.37,2.62-1.11,3.39-.74.78-1.77,1.16-3.08,1.16-.97,0-1.83-.21-2.58-.63s-1.39-1.05-1.91-1.89l-3.1,2.16c.65,1.18,1.62,2.14,2.91,2.86s2.87,1.08,4.75,1.08c2.58,0,4.61-.75,6.07-2.26,1.46-1.51,2.2-3.62,2.2-6.33v-16.25h-4.14v2.26h-.03Zm-.37,8.96c-.33.77-.81,1.36-1.42,1.78-.61.42-1.33.63-2.15.63s-1.59-.21-2.25-.63-1.17-1.01-1.53-1.78c-.37-.76-.55-1.65-.55-2.67s.18-1.93.53-2.7c.36-.76.85-1.36,1.49-1.78.63-.42,1.36-.63,2.18-.63s1.55.21,2.2.63c.65.42,1.14,1.01,1.49,1.78.34.76.52,1.66.52,2.7s-.17,1.9-.5,2.67h0Z"/><path d="m412.87,132.12c-1.06,0-2.05.25-2.97.76-.93.51-1.65,1.19-2.16,2.05h-.16v-8.53h-4.1v23.87h4.1v-10.27c0-.8.16-1.5.47-2.12.31-.61.76-1.09,1.34-1.42s1.26-.5,2.04-.5c.95,0,1.72.34,2.33,1.02.6.68.9,1.58.9,2.7v10.6h4.1v-11.4c0-2.15-.52-3.82-1.55-4.99s-2.48-1.76-4.33-1.76h-.01Z"/><path d="m432.79,136.41v-3.84h-4.78v-5.23h-4.14v5.23h-2.75v3.84h2.75v8.56c0,1.9.48,3.34,1.45,4.35.97,1,2.36,1.5,4.17,1.5,1.06,0,2.02-.14,2.91-.42v-3.84c-.71.22-1.37.32-1.97.32-.78,0-1.37-.21-1.79-.63s-.63-1.02-.63-1.79v-8.04h4.78Z"/><path d="m294.33,24.3h-132.65c-6.7,0-12.15-5.43-12.15-12.15s5.43-12.15,12.15-12.15h132.65c6.7,0,12.15,5.43,12.15,12.15s-5.43,12.15-12.15,12.15"/><path d="m170.03,3.91l-6.06,16.17h3.06l1.59-4.45h5.78l1.59,4.45h3.04l-6.06-16.17h-2.95.01Zm-.42,9.01l1.84-5.14h.13l1.84,5.14h-3.83.02Z" style="fill:#fff;"/><path d="m188.24,9.63h-.11c-.39-.58-.88-1.04-1.45-1.36-.57-.32-1.21-.48-1.9-.48-.98,0-1.84.25-2.59.77-.76.51-1.33,1.23-1.75,2.17-.41.94-.63,2.02-.63,3.24s.21,2.39.64,3.36c.42.97,1.02,1.72,1.78,2.27.77.54,1.64.81,2.64.81.69,0,1.31-.16,1.89-.48s1.03-.78,1.38-1.36h.11v1.53h2.8V3.91h-2.8v5.72h-.01Zm-.26,6.38c-.23.54-.55.98-.98,1.28-.41.3-.9.46-1.43.46-.58,0-1.1-.15-1.53-.46-.43-.3-.78-.74-1.03-1.28-.25-.54-.37-1.19-.37-1.92s.12-1.37.36-1.93.57-.98,1.01-1.28.93-.44,1.48-.44,1.05.15,1.49.44c.43.3.78.73,1.01,1.28s.35,1.2.35,1.93-.12,1.37-.35,1.92h-.01Z" style="fill:#fff;"/><polygon points="198.63 16.79 198.5 16.79 195.51 8.1 192.48 8.1 197.06 20.09 199.95 20.09 204.59 8.1 201.57 8.1 198.63 16.79" style="fill:#fff;"/><path d="m212.62,8.34c-.75-.36-1.59-.54-2.56-.54s-1.87.19-2.62.58c-.76.38-1.41.97-1.95,1.74l1.97,1.36c.29-.42.64-.75,1.04-.97s.86-.33,1.37-.33c.7,0,1.27.19,1.69.56.43.38.65.89.65,1.51v.46h-1.7c-1.15,0-2.15.18-2.99.53-.85.35-1.49.86-1.94,1.5-.44.65-.67,1.39-.67,2.23,0,.7.17,1.31.5,1.81.33.51.8.91,1.38,1.18s1.24.41,1.97.41,1.39-.16,2-.48c.59-.32,1.04-.77,1.33-1.33h.13v1.51h2.76v-7.79c0-.92-.2-1.71-.61-2.4-.41-.68-.99-1.2-1.72-1.56h-.02v.02Zm-.41,7.48c0,.48-.13.89-.4,1.23-.27.33-.6.58-1.02.76-.41.17-.83.25-1.27.25-.54,0-.98-.11-1.3-.34-.33-.22-.49-.52-.49-.91,0-.56.28-1,.85-1.3s1.4-.44,2.53-.44h1.12v.77h-.01v-.02Z" style="fill:#fff;"/><path d="m223.94,7.79c-.72,0-1.39.17-2.02.51-.63.34-1.12.81-1.46,1.39h-.11v-1.59h-2.78v12h2.78v-6.96c0-.54.1-1.02.31-1.43.21-.41.51-.74.91-.97.39-.22.86-.34,1.38-.34.65,0,1.17.23,1.57.69s.61,1.07.61,1.82v7.18h2.78v-7.72c0-1.46-.35-2.58-1.05-3.38-.7-.8-1.67-1.19-2.93-1.19h0Z" style="fill:#fff;"/><path d="m234.16,10.87c.43-.3.94-.44,1.52-.44.52,0,1.01.14,1.44.42s.81.7,1.12,1.24l2.19-1.53c-.43-.84-1.08-1.49-1.92-2-.84-.49-1.74-.75-2.72-.75-1.17,0-2.19.25-3.06.77s-1.55,1.24-2.03,2.19c-.47.95-.72,2.06-.72,3.33s.24,2.38.72,3.33,1.15,1.68,2.03,2.2,1.9.78,3.06.78c.98,0,1.89-.25,2.72-.76s1.48-1.17,1.92-2.01l-2.19-1.53c-.3.54-.68.95-1.12,1.24-.43.28-.93.42-1.46.42-.58,0-1.09-.15-1.51-.44-.42-.3-.76-.73-.99-1.28-.23-.55-.35-1.2-.35-1.95s.12-1.37.35-1.94c.23-.56.56-.99,1-1.29Z" style="fill:#fff;"/><path d="m250.11,8.45c-.81-.43-1.73-.66-2.8-.66s-2.11.26-2.96.78-1.5,1.26-1.96,2.22c-.45.97-.68,2.09-.68,3.37s.24,2.37.72,3.31,1.15,1.65,2.03,2.17,1.91.77,3.08.77,2.09-.24,2.89-.74c.81-.48,1.41-1.13,1.81-1.92l-2.1-1.44c-.3.55-.68.97-1.12,1.25-.43.28-.93.41-1.46.41-.66,0-1.21-.15-1.65-.46-.44-.3-.78-.74-1.01-1.29-.14-.35-.24-.76-.29-1.2h7.8c.14-.59.22-1.21.22-1.83,0-1.08-.22-2.03-.66-2.84-.43-.82-1.06-1.44-1.87-1.89h-.01.02Zm-5.44,4.31c.05-.28.11-.54.19-.78.2-.6.51-1.07.93-1.38s.93-.47,1.52-.47c.54,0,1,.11,1.37.33s.65.52.84.91c.18.38.27.85.27,1.39h-5.12,0Z" style="fill:#fff;"/><path d="m262.69,3.91v5.72h-.11c-.39-.58-.88-1.04-1.45-1.36-.57-.32-1.21-.48-1.9-.48-.98,0-1.84.25-2.59.77-.76.51-1.33,1.23-1.75,2.17-.41.94-.63,2.02-.63,3.24s.21,2.39.64,3.36c.42.97,1.02,1.72,1.78,2.27s1.64.81,2.64.81c.69,0,1.31-.16,1.89-.48s1.03-.78,1.38-1.36h.11v1.53h2.8V3.91h-2.81Zm-.26,12.09c-.23.54-.55.98-.98,1.28-.41.3-.9.46-1.43.46-.58,0-1.1-.15-1.53-.46-.43-.3-.78-.74-1.03-1.28-.25-.54-.37-1.19-.37-1.92s.12-1.37.36-1.93.57-.98,1.01-1.28.93-.44,1.48-.44,1.05.15,1.49.44c.43.3.78.73,1.01,1.28s.35,1.2.35,1.93-.12,1.37-.35,1.92h-.01Z" style="fill:#fff;"/><path d="m278.41,3.91l-6.06,16.17h3.06l1.59-4.45h5.78l1.59,4.45h3.04l-6.06-16.17h-2.95.01Zm-.42,9.01l1.84-5.14h.13l1.84,5.14h-3.83.02Z" style="fill:#fff;"/><rect x="289.17" y="3.91" width="2.86" height="16.17" style="fill:#fff;"/><rect x="256.66" y="96.64" width="3.17" height=".87"/><path d="m245.02,94.54c-.07-.35-.16-.55-.24-.68-.17-.31-.54-.78-1.4-.78-.28,0-.82.03-1.31.56-.4.44-.77,1.18-.77,2.5,0,.88.18,1.91.87,2.55.48.44,1.01.46,1.24.46.17,0,.59,0,.99-.31.63-.49.68-1.41.71-1.59h1.11c-.01.27-.04,1.16-.56,1.9-.29.43-.93,1.06-2.19,1.06-.26,0-.88-.02-1.52-.34-.87-.44-1.93-1.49-1.93-3.73,0-1.95.75-2.98,1.42-3.49.78-.59,1.61-.64,1.97-.64,1.03,0,1.98.45,2.43,1.42.17.36.22.72.27,1.11,0,0-1.09,0-1.09,0Z"/><path d="m249.81,92.56c.76-.52,1.51-.55,1.84-.55,1.19,0,1.91.56,2.24.88.54.51,1.16,1.49,1.16,3.21,0,.47-.02,2.53-1.63,3.58-.54.35-1.12.52-1.77.52-.28,0-.95-.03-1.62-.43-1.76-1.01-1.79-3.2-1.79-3.67.01-1.33.41-2.75,1.58-3.55m.1,5.46c.17.32.34.5.45.62.49.48,1.03.52,1.29.52.73,0,1.3-.37,1.66-1,.21-.36.46-1.04.46-2.05,0-.22.02-1.73-.84-2.55-.2-.19-.59-.49-1.28-.49-.17,0-.56,0-.94.25-1.22.72-1.18,2.61-1.18,2.8,0,.22,0,1.15.38,1.91"/><polygon points="266.31 95.44 266.31 96.49 263.14 96.49 263.14 99.01 266.7 99.01 266.7 100.06 261.92 100.06 261.92 92.16 266.59 92.16 266.59 93.2 263.14 93.2 263.14 95.44 266.31 95.44"/><polygon points="270.52 92.16 274.01 98.19 274.01 92.16 275.17 92.16 275.17 100.06 273.9 100.06 270.38 94.03 270.38 100.06 269.21 100.06 269.21 92.16 270.52 92.16"/><path d="m284.1,96.05v3.27c-.09.07-.34.24-.62.38-.32.16-1.13.5-2.16.5-1.41,0-2.19-.64-2.57-1.07-.43-.49-.95-1.45-.95-3.03,0-.45.01-2.57,1.63-3.59.29-.18.91-.49,1.78-.49,1,0,1.98.4,2.46,1.33.14.27.26.57.31,1.19h-1.09c-.06-.28-.19-1.1-1.05-1.37-.26-.09-.53-.1-.62-.1-.32,0-1.07.08-1.6.83-.43.62-.56,1.51-.56,2.23,0,1.43.52,3.02,2.26,3.02.57,0,1.23-.2,1.72-.52v-1.61h-1.6v-.96h2.66Z"/><rect x="286.9" y="92.16" width="1.23" height="7.9"/><polygon points="292.53 92.16 296.02 98.19 296.02 92.16 297.17 92.16 297.17 100.06 295.91 100.06 292.38 94.03 292.38 100.06 291.22 100.06 291.22 92.16 292.53 92.16"/><polygon points="304.66 95.44 304.66 96.49 301.48 96.49 301.48 99.01 305.04 99.01 305.04 100.06 300.26 100.06 300.26 92.16 304.94 92.16 304.94 93.2 301.48 93.2 301.48 95.44 304.66 95.44"/><polygon points="311.96 95.44 311.96 96.49 308.78 96.49 308.78 99.01 312.34 99.01 312.34 100.06 307.56 100.06 307.56 92.16 312.24 92.16 312.24 93.2 308.78 93.2 308.78 95.44 311.96 95.44"/><path d="m316.55,92.16c.44,0,1.02,0,1.45.06.33.06,1.27.19,1.78,1.07.12.2.31.62.3,1.21,0,.19-.02.77-.35,1.28-.17.26-.39.47-.64.64-.22.15-.43.21-.52.26l1.95,3.39h-1.44l-1.8-3.19h-1.22v3.19h-1.22v-7.9h1.71Zm.71,3.66c.32-.02,1.58-.04,1.57-1.34,0-.64-.36-.94-.57-1.05-.45-.26-1.22-.21-1.69-.22h-.49v2.62h1.19-.01Z"/><polygon points="327.19 95.44 327.19 96.49 324.01 96.49 324.01 99.01 327.57 99.01 327.57 100.06 322.79 100.06 322.79 92.16 327.47 92.16 327.47 93.2 324.01 93.2 324.01 95.44 327.19 95.44"/><path d="m332.34,92.16c1.29.04,1.89.3,2.38.68.57.44,1.44,1.46,1.43,3.27,0,1.11-.36,2.31-1.2,3.08-.96.9-2.22.87-3.41.87h-1.44v-7.9h2.24Zm-.37,6.85c.62,0,.9,0,1.19-.09.55-.12,1.32-.49,1.62-1.77.11-.48.11-.87.11-1.05,0-1.14-.39-2.4-1.61-2.76-.41-.12-.78-.13-1.61-.13h-.35v5.81h.65Z"/><polygon points="343.5 92.16 345.02 98.6 346.56 92.16 347.62 92.16 349.17 98.6 350.71 92.16 351.84 92.16 349.87 100.08 348.5 100.08 347.08 94.45 345.67 100.08 344.3 100.08 342.35 92.16 343.5 92.16"/><rect x="354.09" y="92.16" width="1.23" height="7.9"/><polygon points="362.99 92.16 362.99 93.2 360.91 93.2 360.91 100.06 359.69 100.06 359.69 93.2 357.62 93.2 357.62 92.16 362.99 92.16"/><polygon points="369.91 95.43 369.91 92.16 371.13 92.16 371.13 100.06 369.91 100.06 369.91 96.45 366.51 96.45 366.51 100.06 365.29 100.06 365.29 92.16 366.51 92.16 366.51 95.43 369.91 95.43"/><path d="m394.84,112.1c8.79,0,15.91-7.13,15.91-15.91s-7.13-15.92-15.91-15.92-15.91,7.13-15.91,15.92,7.12,15.91,15.91,15.91Z" style="fill:#e60012;"/><path d="m407.49,97.09s-.41.3-.71.3c-.22,0-.35-.19-.35-.39,0-.46.72-2.73.72-2.73l-1.76.02-.09.31s-.26-.52-1.18-.52c-1.79,0-2.78,1.55-2.82,2.46,0,.2-.01.23-.01.23-.04.05-.68.77-1.45.77-.62,0-.73-.52-.73-.86,0-.36.3-1.79,1.15-1.79.46,0,.75.4.75.4l.25-.82s-.39-.31-1.2-.31c-1.73,0-2.92,1.3-2.96,2.47,0,.18-.02.23-.01.24-.06.07-.48.56-1.04.56-.38,0-.38-.3-.38-.43,0-.18.75-2.73.75-2.73l-1.96.03-.7,2.48s-1.07.78-2.58.89c-.77.05-1.04-.42-1.04-.69v-.11s.32.02.55.02c.18,0,2.47-.16,2.47-1.56,0-.8-.8-1.11-1.81-1.11-1.87,0-3.18,1.16-3.18,2.54,0,1.26,1.07,1.8,2.46,1.8,1.57,0,3.1-.96,3.1-.96,0,0,.09.96,1.32.96s2.28-.96,2.28-.96c0,0,.56.92,1.83.92s2.3-1.05,2.3-1.05c0,0,.35.99,1.64.99,1.01,0,1.55-.66,1.55-.66,0,0,.29.66,1.16.66,1.07,0,1.87-.75,1.87-.75l-.19-.61h0Zm-16.06-2.3c.26.02.44.2.43.4-.04,1.25-1.58,1.05-1.58,1.05,0,0,.25-1.5,1.15-1.45Zm12.33,2.74c-.48,0-.48-.53-.48-.68,0-.41.32-2.02,1.19-2.02.37,0,.57.31.57.54,0,.05-.22,2.16-1.28,2.16Z" style="fill:#fff;"/><path d="m407.84,98.77s-4.12,1.43-11.98,1.34c-5.42-.07-9.55-1.67-9.55-1.67,0,0,.13-.26.22-.44.54-1.11,1.18-3.36,1.18-3.36,0,0,3.73-1.04,3.73-4,0-.94-.87-1.54-1.73-1.58-3-.12-3.84,4.16-4.02,4.89-.01.05-.02.07-.02.07-.93-.13-1.45-.32-1.45-.32l-.21.58c.63.3,1.54.39,1.54.39-.18,1.15-1.07,3.32-1.07,3.32,0,0-.82-.27-1.84-.27-1.32,0-1.78.63-1.81,1.02-.09,1.02,1.2,1.5,2.09,1.5,1.75,0,2.66-.95,2.66-.95,0,0,4.92,1.86,10.06,1.86,6.72,0,12.39-1.79,12.39-1.79l-.19-.61v.02h0Zm-17.99-8.85c.58,0,.77.47.72.89-.28,2.47-2.73,3.04-2.73,3.04,0,0,.61-3.93,2.02-3.93h0Zm-7.31,9.54c-.5.02-.82-.31-.82-.5,0-.41.5-.47.82-.45.77.04,1.43.3,1.43.3,0,0-.78.62-1.43.64h0Z" style="fill:#fff;"/><path d="m395.82,91.96c-.62,0-1.09.25-1.09.84s.53.75,1.09.75,1.06-.26,1.06-.86-.61-.73-1.06-.73Z" style="fill:#fff;"/><polygon points="256.1 51.5 256.1 55.93 261.24 53.28 261.24 72.38 265.51 72.38 265.51 48.46 262.05 48.46 256.1 51.5"/><path d="m285.07,48.46h-5.98l-9.09,16.36v2.81h10.8v4.75h4.27v-4.75h2.97v-3.91h-2.97v-15.26h0Zm-10.09,15.26l5.82-10.63v10.63h-5.82Z"/><polygon points="288.72 48.49 288.72 52.47 295.8 52.47 295.8 72.38 300.04 72.38 300.04 52.47 307.12 52.47 307.12 48.49 288.72 48.49"/><path d="m330.34,48.49h-9.05v23.89h4.24v-8.18h5.11c2.61,0,4.64-.69,6.11-2.07,1.47-1.38,2.2-3.31,2.2-5.79s-.76-4.41-2.28-5.79-3.63-2.07-6.32-2.07h0Zm2.99,10.78c-.83.68-2.01,1.02-3.54,1.02h-4.27v-7.92h4.27c1.53,0,2.71.35,3.54,1.03.83.69,1.24,1.67,1.24,2.94s-.42,2.25-1.24,2.93Z"/><path d="m349,55.18c-1.1.65-1.97,1.56-2.62,2.75h-.16v-3.27h-4.11v17.72h4.11v-9.28c0-.97.24-1.82.73-2.54.48-.72,1.22-1.27,2.2-1.65s2.21-.57,3.7-.57h.29v-4.14h-.19c-1.53,0-2.84.32-3.94.97h-.01Z"/><path d="m370.04,58.58c-.69-1.4-1.66-2.48-2.93-3.23-1.26-.75-2.73-1.13-4.41-1.13s-3.18.38-4.45,1.13c-1.26.75-2.23,1.83-2.91,3.23s-1.02,3.05-1.02,4.95.34,3.51,1.02,4.91,1.65,2.48,2.91,3.25c1.26.76,2.74,1.15,4.45,1.15s3.15-.38,4.41-1.13,2.24-1.84,2.93-3.25,1.03-3.06,1.03-4.93-.35-3.55-1.03-4.95Zm-3.67,7.82c-.33.82-.81,1.45-1.44,1.89s-1.37.66-2.23.66-1.61-.22-2.23-.66c-.63-.44-1.11-1.07-1.46-1.89-.34-.82-.52-1.78-.52-2.88s.17-2.06.52-2.89c.34-.83.83-1.46,1.46-1.89.62-.43,1.37-.65,2.23-.65s1.61.22,2.23.65c.63.43,1.1,1.06,1.44,1.89.33.83.5,1.79.5,2.89s-.17,2.06-.5,2.88Z"/><path d="m173.29,47.98c-3.59,0-7.18.45-9.46,2.69-2.27,2.23-3.15,5.59-3.15,9.71s.78,7.42,3.06,9.65c2.27,2.23,5.96,2.77,9.55,2.77s7.17-.46,9.44-2.69,3.17-5.61,3.17-9.73-.8-7.39-3.07-9.63c-2.27-2.23-5.95-2.77-9.54-2.77Zm5.45,18.34c-1.26,1.44-3.55,1.7-5.45,1.7s-4.18-.25-5.44-1.69c-1.27-1.44-1.35-3.43-1.35-5.94s.08-4.44,1.35-5.89c1.26-1.44,3.3-1.7,5.44-1.7s4.18.25,5.44,1.7c1.26,1.44,1.35,3.38,1.35,5.89s-.08,4.49-1.35,5.94h0Zm-55.19-17.9h-5.08c-.22,0-.39.17-.39.39v23.18c0,.21.18.38.39.38h5.08c.22,0,.39-.17.39-.38v-23.18c0-.21-.18-.39-.39-.39Zm-21.36,11.78l9.03-11.18c.2-.24.02-.6-.29-.6h-6.51c-.16,0-.3.07-.39.2l-5.96,7.91-5.82-7.9c-.09-.13-.24-.2-.4-.2h-6.53c-.31,0-.48.36-.29.6l9.14,11.38-9.15,11.37c-.19.24,0,.6.29.6h6.52c.16,0,.31-.08.4-.21l6.09-7.88,5.77,7.88c.09.13.24.2.4.2h6.44c.31,0,.48-.36.29-.6l-9.05-11.57h.02Zm123.74-10.02c-2.07-1.92-5.39-2.16-8.08-2.16-3.47,0-5.69.74-7.03,1.43h-.93c-1.31-.72-3.63-1.43-7.26-1.43-2.69,0-5.99.2-8.02,1.9-1.68,1.41-2.07,3.29-2.07,7.15v14.9c0,.21.18.38.39.38h5.08c.22,0,.4-.17.4-.38v-12.26c0-2.21-.09-4.52.39-5.38.37-.67.96-1.42,3.71-1.42,3.29,0,4.07.23,4.59,1.69.12.34.18.84.21,1.43v15.94c0,.21.18.38.39.38h5.08c.22,0,.39-.17.39-.38v-15.94c.03-.6.09-1.09.21-1.43.52-1.46,1.29-1.69,4.59-1.69,2.76,0,3.34.75,3.71,1.42.48.86.39,3.16.39,5.38v12.26c0,.21.18.38.4.38h5.08c.22,0,.39-.17.39-.38v-13.99c0-4-.13-6.06-2.01-7.8Zm-72.93,1.42c-2.35-3.24-6.59-4.22-11-3.98-4.47.24-7.58,1.19-8.37,1.49-.5.19-.43.61-.44.87-.02.85-.08,3.06-.08,3.96,0,.4.49.58.9.44,1.63-.58,4.63-1.5,7.05-1.69,2.61-.21,6.15,0,7.13,1.48.47.71.49,1.78.54,2.88-1.63-.15-4.04-.35-6.43-.22-1.87.1-5.44.26-7.54,1.38-1.71.91-2.72,1.74-3.25,3.28-.43,1.24-.55,2.73-.41,3.95.31,2.77,1.28,4.15,2.58,5.11,2.05,1.52,4.64,2.32,9.99,2.2,7.13-.16,9-2.46,9.94-4.09,1.61-2.78,1.33-7.18,1.28-9.88-.02-1.12-.19-4.8-1.9-7.16v-.02h0Zm-4.64,14.62c-.67,1.42-3.07,1.63-4.49,1.7-2.63.12-4.56,0-5.81-.6-.83-.41-1.44-1.35-1.49-2.42-.05-.91-.03-1.38.38-1.91.92-1.2,3.33-1.46,5.82-1.56,1.67-.06,4.23.12,6.11.35-.02,1.82-.13,3.64-.51,4.44h-.01Zm93.12-17.8h-5.08c-.22,0-.39.17-.39.39v23.18c0,.21.18.38.39.38h5.08c.22,0,.39-.17.39-.38v-23.18c0-.21-.18-.39-.39-.39Z"/><polygon points="256.1 51.5 256.1 55.93 261.24 53.28 261.24 72.38 265.51 72.38 265.51 48.46 262.05 48.46 256.1 51.5"/><path d="m285.07,48.46h-5.98l-9.09,16.36v2.81h10.8v4.75h4.27v-4.75h2.97v-3.91h-2.97v-15.26h0Zm-10.09,15.26l5.82-10.63v10.63h-5.82Z"/><polygon points="288.72 48.49 288.72 52.47 295.8 52.47 295.8 72.38 300.04 72.38 300.04 52.47 307.12 52.47 307.12 48.49 288.72 48.49"/><path d="m330.34,48.49h-9.05v23.89h4.24v-8.18h5.11c2.61,0,4.64-.69,6.11-2.07,1.47-1.38,2.2-3.31,2.2-5.79s-.76-4.41-2.28-5.79-3.63-2.07-6.32-2.07h0Zm2.99,10.78c-.83.68-2.01,1.02-3.54,1.02h-4.27v-7.92h4.27c1.53,0,2.71.35,3.54,1.03.83.69,1.24,1.67,1.24,2.94s-.42,2.25-1.24,2.93Z"/><path d="m349,55.18c-1.1.65-1.97,1.56-2.62,2.75h-.16v-3.27h-4.11v17.72h4.11v-9.28c0-.97.24-1.82.73-2.54.48-.72,1.22-1.27,2.2-1.65s2.21-.57,3.7-.57h.29v-4.14h-.19c-1.53,0-2.84.32-3.94.97h-.01Z"/><path d="m370.04,58.58c-.69-1.4-1.66-2.48-2.93-3.23-1.26-.75-2.73-1.13-4.41-1.13s-3.18.38-4.45,1.13c-1.26.75-2.23,1.83-2.91,3.23s-1.02,3.05-1.02,4.95.34,3.51,1.02,4.91,1.65,2.48,2.91,3.25c1.26.76,2.74,1.15,4.45,1.15s3.15-.38,4.41-1.13,2.24-1.84,2.93-3.25,1.03-3.06,1.03-4.93-.35-3.55-1.03-4.95Zm-3.67,7.82c-.33.82-.81,1.45-1.44,1.89s-1.37.66-2.23.66-1.61-.22-2.23-.66c-.63-.44-1.11-1.07-1.46-1.89-.34-.82-.52-1.78-.52-2.88s.17-2.06.52-2.89c.34-.83.83-1.46,1.46-1.89.62-.43,1.37-.65,2.23-.65s1.61.22,2.23.65c.63.43,1.1,1.06,1.44,1.89.33.83.5,1.79.5,2.89s-.17,2.06-.5,2.88Z"/><path d="m173.29,47.98c-3.59,0-7.18.45-9.46,2.69-2.27,2.23-3.15,5.59-3.15,9.71s.78,7.42,3.06,9.65c2.27,2.23,5.96,2.77,9.55,2.77s7.17-.46,9.44-2.69,3.17-5.61,3.17-9.73-.8-7.39-3.07-9.63c-2.27-2.23-5.95-2.77-9.54-2.77Zm5.45,18.34c-1.26,1.44-3.55,1.7-5.45,1.7s-4.18-.25-5.44-1.69c-1.27-1.44-1.35-3.43-1.35-5.94s.08-4.44,1.35-5.89c1.26-1.44,3.3-1.7,5.44-1.7s4.18.25,5.44,1.7c1.26,1.44,1.35,3.38,1.35,5.89s-.08,4.49-1.35,5.94h0Zm-55.19-17.9h-5.08c-.22,0-.39.17-.39.39v23.18c0,.21.18.38.39.38h5.08c.22,0,.39-.17.39-.38v-23.18c0-.21-.18-.39-.39-.39Zm-21.36,11.78l9.03-11.18c.2-.24.02-.6-.29-.6h-6.51c-.16,0-.3.07-.39.2l-5.96,7.91-5.82-7.9c-.09-.13-.24-.2-.4-.2h-6.53c-.31,0-.48.36-.29.6l9.14,11.38-9.15,11.37c-.19.24,0,.6.29.6h6.52c.16,0,.31-.08.4-.21l6.09-7.88,5.77,7.88c.09.13.24.2.4.2h6.44c.31,0,.48-.36.29-.6l-9.05-11.57h.02Zm123.74-10.02c-2.07-1.92-5.39-2.16-8.08-2.16-3.47,0-5.69.74-7.03,1.43h-.93c-1.31-.72-3.63-1.43-7.26-1.43-2.69,0-5.99.2-8.02,1.9-1.68,1.41-2.07,3.29-2.07,7.15v14.9c0,.21.18.38.39.38h5.08c.22,0,.4-.17.4-.38v-12.26c0-2.21-.09-4.52.39-5.38.37-.67.96-1.42,3.71-1.42,3.29,0,4.07.23,4.59,1.69.12.34.18.84.21,1.43v15.94c0,.21.18.38.39.38h5.08c.22,0,.39-.17.39-.38v-15.94c.03-.6.09-1.09.21-1.43.52-1.46,1.29-1.69,4.59-1.69,2.76,0,3.34.75,3.71,1.42.48.86.39,3.16.39,5.38v12.26c0,.21.18.38.4.38h5.08c.22,0,.39-.17.39-.38v-13.99c0-4-.13-6.06-2.01-7.8Zm-72.93,1.42c-2.35-3.24-6.59-4.22-11-3.98-4.47.24-7.58,1.19-8.37,1.49-.5.19-.43.61-.44.87-.02.85-.08,3.06-.08,3.96,0,.4.49.58.9.44,1.63-.58,4.63-1.5,7.05-1.69,2.61-.21,6.15,0,7.13,1.48.47.71.49,1.78.54,2.88-1.63-.15-4.04-.35-6.43-.22-1.87.1-5.44.26-7.54,1.38-1.71.91-2.72,1.74-3.25,3.28-.43,1.24-.55,2.73-.41,3.95.31,2.77,1.28,4.15,2.58,5.11,2.05,1.52,4.64,2.32,9.99,2.2,7.13-.16,9-2.46,9.94-4.09,1.61-2.78,1.33-7.18,1.28-9.88-.02-1.12-.19-4.8-1.9-7.16v-.02h0Zm-4.64,14.62c-.67,1.42-3.07,1.63-4.49,1.7-2.63.12-4.56,0-5.81-.6-.83-.41-1.44-1.35-1.49-2.42-.05-.91-.03-1.38.38-1.91.92-1.2,3.33-1.46,5.82-1.56,1.67-.06,4.23.12,6.11.35-.02,1.82-.13,3.64-.51,4.44h-.01Zm93.12-17.8h-5.08c-.22,0-.39.17-.39.39v23.18c0,.21.18.38.39.38h5.08c.22,0,.39-.17.39-.38v-23.18c0-.21-.18-.39-.39-.39Z"/></svg>