<svg t="1728206604472" viewBox="0 0 1024 1024" version="1.1"
    xmlns="http://www.w3.org/2000/svg" p-id="18777" width="200" height="200">
    <path
        fill="currentColor"
        d="M56.9344 440.9344v-14.2336 14.2336z m0 142.1312v14.2336-14.2336z m910.1312 0v14.2336-14.2336z m0-142.1312v-14.2336 14.2336z m0 0v14.2336c-31.4368 0-56.9344 25.4976-56.9344 56.9344s25.4976 56.9344 56.9344 56.9344v227.5328c0 31.4368-25.4976 56.9344-56.9344 56.9344H113.7664c-31.4368 0-56.9344-25.4976-56.9344-56.9344V568.9344c31.4368 0 56.9344-25.4976 56.9344-56.9344s-25.4976-56.9344-56.9344-56.9344V227.5328c0-31.4368 25.4976-56.9344 56.9344-56.9344h796.4672c31.4368 0 56.9344 25.4976 56.9344 56.9344v227.5328h-56.9344V227.5328H113.7664v227.5328H56.9344v-14.2336 14.2336c31.4368 0 56.9344 25.4976 56.9344 56.9344s-25.4976 56.9344-56.9344 56.9344v14.2336-14.2336h56.9344v227.5328H910.336V568.9344h56.9344v14.2336-14.2336c-31.4368 0-56.9344-25.4976-56.9344-56.9344s25.4976-56.9344 56.9344-56.9344l-0.2048-14.1312z m-597.2992-42.7008h284.4672c15.6672 0 28.4672 12.6976 28.4672 28.4672 0 15.6672-12.6976 28.4672-28.4672 28.4672H369.7664c-15.6672 0-28.4672-12.6976-28.4672-28.4672s12.8-28.4672 28.4672-28.4672z m0 170.7008h284.4672c15.6672 0 28.4672 12.6976 28.4672 28.4672 0 15.6672-12.6976 28.4672-28.4672 28.4672H369.7664c-15.6672 0-28.4672-12.6976-28.4672-28.4672s12.8-28.4672 28.4672-28.4672z"
    ></path>
    <path
        fill="currentColor"
        d="M56.9344 398.2336c62.8736 0 113.7664 50.8928 113.7664 113.7664S119.7056 625.7664 56.9344 625.7664v-56.9344c31.4368 0 56.9344-25.4976 56.9344-56.9344s-25.4976-56.9344-56.9344-56.9344v-56.7296z m910.1312 0v56.9344c-31.4368 0-56.9344 25.4976-56.9344 56.9344s25.4976 56.9344 56.9344 56.9344v56.9344c-62.8736 0-113.7664-50.8928-113.7664-113.7664s50.9952-113.9712 113.7664-113.9712z"
    ></path>
</svg>