<svg viewBox="0 0 20 20" width="1em" height="1em" fill="currentColor" xmlns="http://www.w3.org/2000/svg" class="mi-password-field__icon"><path d="M19.78 7.738a.964.964 0 00-1.488-1.227 10.567 10.567 0 01-2.159 1.98 10.487 10.487 0 01-5.958 1.848 10.514 10.514 0 01-2.826-.381 10.394 10.394 0 01-1.977-.776 10.612 10.612 0 01-3.646-3.095.964.964 0 00-1.547 1.15c.487.655 1.037 1.26 1.642 1.808a.955.955 0 00-.084.17l-1.01 2.692a.964.964 0 101.806.677l.868-2.32a12.316 12.316 0 002.632 1.298l-.528 2.696a.964.964 0 101.893.371l.504-2.569c1.358.25 2.747.275 4.113.072l.44 2.417a.964.964 0 101.898-.346l-.455-2.502a12.37 12.37 0 002.381-1.029l.993 2.333a.964.964 0 001.775-.756l-1.139-2.673a12.537 12.537 0 001.871-1.838z"></path></svg>