<svg t="1725847376633" class="svg-icon" viewBox="0 0 1024 1024" version="1.1" xmlns="http://www.w3.org/2000/svg" p-id="7903" xmlns:xlink="http://www.w3.org/1999/xlink" width="200" height="200"><path d="M512 512m-512 0a512 512 0 1 0 1024 0 512 512 0 1 0-1024 0Z" fill="#F78377" p-id="7904"></path><path d="M684.8 578.56l-112.64-259.84c-15.36-37.12-58.88-53.76-98.56-39.68l-227.84 87.04c-39.68 15.36-58.88 56.32-46.08 94.72l90.88 267.52c6.4 19.2 21.76 37.12 38.4 44.8 19.2 8.96 39.68 10.24 57.6 3.84l258.56-99.84c17.92-6.4 32-21.76 39.68-42.24 7.68-16.64 7.68-38.4 0-56.32z" fill="#FFFFFF" opacity=".5" p-id="7905"></path><path d="M828.16 659.2l-12.8-331.52c-1.28-47.36-42.24-84.48-90.88-84.48H437.76c-48.64 0-88.32 35.84-90.88 84.48l-12.8 330.24c-1.28 23.04 7.68 48.64 23.04 65.28 16.64 17.92 39.68 28.16 61.44 28.16h325.12c21.76 0 43.52-10.24 61.44-29.44 16.64-15.36 24.32-38.4 23.04-62.72z" fill="#FFFFFF" p-id="7906"></path><path d="M581.12 492.8c-33.28 0-62.72-12.8-85.76-35.84-23.04-23.04-34.56-53.76-34.56-85.76 0-11.52 8.96-20.48 20.48-20.48 11.52 0 20.48 8.96 20.48 20.48 0 44.8 35.84 80.64 80.64 80.64s80.64-35.84 80.64-80.64c0-11.52 8.96-20.48 20.48-20.48s20.48 8.96 20.48 20.48c-1.28 66.56-56.32 121.6-122.88 121.6z" fill="#F78377" p-id="7907"></path></svg>