<svg xmlns="http://www.w3.org/2000/svg" xmlns:xlink="http://www.w3.org/1999/xlink" viewBox="0 0 118.06 93.76">
    <defs>
        <linearGradient id="a00f446c-b1fa-46de-b41a-0ced193e181b" x1="28.32" y1="83.54" x2="92.38" y2="19.47"
                        gradientTransform="matrix(1, 0, 0, -1, 0, 96)" gradientUnits="userSpaceOnUse">
            <stop offset="0" stop-color="#ffb2c2"></stop>
            <stop offset="1" stop-color="#f85e8a"></stop>
        </linearGradient>
    </defs>
    <title>iswink</title>
    <g id="a77eb8aa-1332-475a-a22d-9e62167bf80f">
        <g id="ff522de7-4fcc-4381-b1ca-a77d9e8f73a7">
            <path d="M25.23,45.84c-5.61-7.48-12.38-4-11.5,8S23.76,87.7,45.64,93c27.19,6.54,69.73-30.83,69.88-52.56S90.73,6.53,75.74,2.67c-20-5.13-40.56-3.32-45.08,9.4C25.82,25.72,40.83,41.24,45.05,41.51c5.87.36,4.82-14.32,15.05-13.51,5.73.46,7.43,14.54,12.67,14.65,5.76.12,11.69-21.91,21.17-15.75,9.83,6.39-9.62,38.68-19.16,39.12S65.12,54,60.43,54c-5.25,0-5.69,15.21-14.94,15.21C39.62,69.18,31,53.47,25.23,45.84Z"
                  fill="url(#a00f446c-b1fa-46de-b41a-0ced193e181b)"></path>
            <path d="M80.29,88.42c.87,4.33,6.35,1.92,3.47-1.42C82.11,85.1,79.81,86,80.29,88.42Z" fill="#ab8eeb"></path>
            <path d="M16.52,32.08C17.6,30,3.42,14.68.29,22-2.48,28.44,15.45,34.11,16.52,32.08Z" fill="#f757af"></path>
            <path d="M15.64,36.37c-2-1.52-6.64-2.8-9.53-1.08-2.45,1.45-1.75,7.56,6.81,5.12C18.46,38.83,16.59,37.1,15.64,36.37Zm29.41,5.14c-4.22-.27-19.23-15.79-14.39-29.44a14.56,14.56,0,0,1,4.1-6c-9.68,3-16.23,7.83-16.63,12.7C17.08,31.46,40.88,49.89,48,40.09A3.4,3.4,0,0,1,45.05,41.51ZM96.93,17.2C77.25,1.5,51.4,1,34.76,6.06a14.56,14.56,0,0,0-4.1,6C25.82,25.72,40.83,41.24,45.05,41.51c5.87.36,4.82-14.32,15.05-13.51,5.73.46,7.43,14.54,12.67,14.65,5.76.12,11.69-21.91,21.17-15.75,9.83,6.39-9.62,38.68-19.16,39.12-4,.19-6.37-1.92-8.09-4.42C77.32,83.21,125.49,40,96.93,17.2Z"
                  fill="#ff8d27" opacity="0.5"></path>
            <path d="M15.07,61.28c-3.37,3.74-6,8.11-4.75,14,2,9.51,11,13,22.42,11.93C23.05,80.45,17.47,70,15.07,61.28Zm66.48,1c-2.45,2.27-4.82,3.69-6.77,3.78-9.54.44-9.66-12-14.35-12-5.25,0-5.69,15.21-14.94,15.21-5.87,0-14.53-15.71-20.26-23.34a12.59,12.59,0,0,0-1-1.19c3.71,6.23-3.72,10.6-9.18,16.63,2.4,8.72,8,19.17,17.67,25.91C48.25,85.79,68.26,76.14,81.55,62.24Z"
                  fill="#ff0098" opacity="0.6"></path>
            <path d="M115.3,43.07c-1.94,13-16.84,30.28-34.09,40.93,14.1,0,27-5.22,33.05-14.52C119,62.26,119.26,51.88,115.3,43.07Zm0,0A28.24,28.24,0,0,0,92.74,26.26a7.67,7.67,0,0,1,1.2.64c9.83,6.39-9.62,38.68-19.16,39.12S65.12,54,60.43,54c-5.25,0-5.69,15.21-14.94,15.21-3,0-6.78-4.16-10.49-9.23C45.65,76.63,64.3,84,81.21,84,98.46,73.35,113.36,56.07,115.3,43.07Z"
                  fill="#6d59d1" opacity="0.5" style="isolation:isolate"></path>
        </g>
    </g>
</svg>