<svg t="1728101249238" viewBox="0 0 1024 1024" version="1.1"
    xmlns="http://www.w3.org/2000/svg" p-id="16825" width="200" height="200">
    <path
        d="M536.567 105.568l0.492 0.525 265.885 289.451c15.303 16.66 14.204 42.57-2.456 57.874-16.493 15.15-42.054 14.224-57.412-1.96l-0.462-0.496-193.75-210.923v652.889c0 22.622-18.338 40.96-40.96 40.96s-40.96-18.338-40.96-40.96V238.307L273.277 450.422c-15.1 16.539-40.643 17.858-57.362 3.083l-0.504-0.452c-16.54-15.1-17.859-40.644-3.084-57.363l0.453-0.504 263.864-289.001c16.047-17.576 43.593-17.793 59.922-0.617z"
    ></path>
</svg>